<?xml version="1.0" encoding="UTF-8" standalone="no"?>
<!-- Created with Inkscape (http://www.inkscape.org/) -->

<svg
   xmlns:dc="http://purl.org/dc/elements/1.1/"
   xmlns:cc="http://creativecommons.org/ns#"
   xmlns:rdf="http://www.w3.org/1999/02/22-rdf-syntax-ns#"
   xmlns:svg="http://www.w3.org/2000/svg"
   xmlns="http://www.w3.org/2000/svg"
   xmlns:sodipodi="http://sodipodi.sourceforge.net/DTD/sodipodi-0.dtd"
   xmlns:inkscape="http://www.inkscape.org/namespaces/inkscape"
   width="59.015057mm"
   height="61.139404mm"
   viewBox="0 0 59.015057 61.139404"
   version="1.1"
   id="svg8"
   inkscape:version="0.92.2 (5c3e80d, 2017-08-06)"
   sodipodi:docname="list_share.svg"
   inkscape:export-filename="C:\work\shopper-project\docs\list_small.png"
   inkscape:export-xdpi="25.523291"
   inkscape:export-ydpi="25.523291">
  <defs
     id="defs2" />
  <sodipodi:namedview
     id="base"
     pagecolor="#ffffff"
     bordercolor="#666666"
     borderopacity="1.0"
     inkscape:pageopacity="0.0"
     inkscape:pageshadow="2"
     inkscape:zoom="0.98994949"
     inkscape:cx="-112.99074"
     inkscape:cy="4.5131108"
     inkscape:document-units="mm"
     inkscape:current-layer="layer1"
     showgrid="false"
     showguides="true"
     inkscape:guide-bbox="true"
     inkscape:window-width="1920"
     inkscape:window-height="1027"
     inkscape:window-x="1912"
     inkscape:window-y="-8"
     inkscape:window-maximized="1"
     fit-margin-top="0"
     fit-margin-left="0"
     fit-margin-right="0"
     fit-margin-bottom="0">
    <sodipodi:guide
       position="249.69319,5.9480555"
       orientation="1,0"
       id="guide869"
       inkscape:locked="false" />
  </sodipodi:namedview>
  <metadata
     id="metadata5">
    <rdf:RDF>
      <cc:Work
         rdf:about="">
        <dc:format>image/svg+xml</dc:format>
        <dc:type
           rdf:resource="http://purl.org/dc/dcmitype/StillImage" />
        <dc:title></dc:title>
      </cc:Work>
    </rdf:RDF>
  </metadata>
  <g
     inkscape:label="Layer 1"
     inkscape:groupmode="layer"
     id="layer1"
     transform="translate(-7.954631,-6.0769195)">
    <path
       style="fill:#f2f2f7;fill-opacity:1;stroke:none;stroke-width:0.29196808;stroke-linecap:round;stroke-linejoin:round;stroke-miterlimit:4;stroke-dasharray:none;stroke-opacity:1"
       d="m 42.974126,10.091131 -33.8540493,0.06131 c 0,0 -0.364212,-0.03073 -0.779629,0.303712 -0.431662,0.448183 -0.384216,0.727381 -0.384216,0.727381 l 0.13755,37.364778 h -0.132041 l -0.0023,8.310946 c 0,0 -0.02366,0.428292 0.362536,0.809308 0.299896,0.375099 0.868135,0.428062 0.868662,0.42811 l 33.8538733,-0.06131 c 0,0 0.364028,0.03074 0.779448,-0.303712 0.431662,-0.448183 0.384393,-0.727382 0.384393,-0.727382 l -0.0031,-45.675724 c 0,0 0.02366,-0.42829 -0.362528,-0.809306 -0.300036,-0.375273 -0.868666,-0.428112 -0.868666,-0.428112 z"
       id="rect828"
       inkscape:connector-curvature="0" />
    <path
       style="fill:#ffe261;fill-opacity:1;stroke:none;stroke-width:0.29196808;stroke-linecap:round;stroke-linejoin:round;stroke-miterlimit:4;stroke-dasharray:none;stroke-opacity:1"
       d="M 42.97406,10.09114 9.1200017,10.15245 c 0,0 -0.364031,-0.03073 -0.779451,0.303712 -0.431662,0.448183 -0.384394,0.727381 -0.384394,0.727381 l 0.03109,8.455959 H 44.20276 l 0.0024,-8.310945 c 0,0 0.02366,-0.42829 -0.362539,-0.809306 -0.300036,-0.375273 -0.868655,-0.428112 -0.868655,-0.428112 z"
       id="rect828-8"
       inkscape:connector-curvature="0"
       sodipodi:nodetypes="cccccccccc" />
    <path
       style="color:#000000;font-style:normal;font-variant:normal;font-weight:normal;font-stretch:normal;font-size:medium;line-height:normal;font-family:sans-serif;font-variant-ligatures:normal;font-variant-position:normal;font-variant-caps:normal;font-variant-numeric:normal;font-variant-alternates:normal;font-feature-settings:normal;text-indent:0;text-align:start;text-decoration:none;text-decoration-line:none;text-decoration-style:solid;text-decoration-color:#000000;letter-spacing:normal;word-spacing:normal;text-transform:none;writing-mode:lr-tb;direction:ltr;text-orientation:mixed;dominant-baseline:auto;baseline-shift:baseline;text-anchor:start;white-space:normal;shape-padding:0;clip-rule:nonzero;display:inline;overflow:visible;visibility:visible;opacity:1;isolation:auto;mix-blend-mode:normal;color-interpolation:sRGB;color-interpolation-filters:linearRGB;solid-color:#000000;solid-opacity:1;vector-effect:none;fill:#374266;fill-opacity:1;fill-rule:nonzero;stroke:none;stroke-width:1.37558579;stroke-linecap:round;stroke-linejoin:miter;stroke-miterlimit:4;stroke-dasharray:none;stroke-dashoffset:0;stroke-opacity:1;color-rendering:auto;image-rendering:auto;shape-rendering:auto;text-rendering:auto;enable-background:accumulate"
       d="m 13.872727,6.1494975 c -1.819326,0.195078 -3.473241,1.60499 -3.261786,4.0396335 l 1.347235,0.01898 C 11.940706,8.3599525 12.976,7.6295435 14.019151,7.5176905 c 0.521578,-0.05593 1.01064,0.09237 1.418573,0.53398 0.407933,0.441608 0.748529,1.225909 0.75966,2.5019805 v 0.01276 l 6.88e-4,0.01276 c 0.102186,2.205066 -0.446824,3.14194 -0.901387,3.574642 -0.454559,0.432702 -0.813394,0.416437 -0.813394,0.416437 -0.917058,0.01568 -0.893536,1.391268 0.02352,1.375586 0,0 0.943927,-0.0391 1.73829,-0.79526 0.792588,-0.754478 1.436269,-2.170012 1.325879,-4.620437 -0.01551,-1.5114605 -0.42679,-2.6584315 -1.122365,-3.4114255 -0.697577,-0.75516 -1.666202,-1.066763 -2.575863,-0.969224 z"
       id="path919"
       inkscape:connector-curvature="0"
       sodipodi:nodetypes="cccssccccccccscc" />
    <path
       style="fill:none;stroke:#374266;stroke-width:1.71948218;stroke-linecap:round;stroke-linejoin:miter;stroke-miterlimit:4;stroke-dasharray:none;stroke-opacity:1"
       d="M 20.586356,26.349225 H 40.899141"
       id="path852"
       inkscape:connector-curvature="0" />
    <path
       style="fill:none;stroke:#374266;stroke-width:1.71948218;stroke-linecap:round;stroke-linejoin:miter;stroke-miterlimit:4;stroke-dasharray:none;stroke-opacity:1"
       d="M 20.586356,35.908179 H 40.899141"
       id="path852-2"
       inkscape:connector-curvature="0" />
    <path
       style="fill:none;stroke:#374266;stroke-width:1.71948218;stroke-linecap:round;stroke-linejoin:miter;stroke-miterlimit:4;stroke-dasharray:none;stroke-opacity:1"
       d="M 20.586356,45.559052 H 40.899141"
       id="path852-2-6"
       inkscape:connector-curvature="0" />
    <path
       style="fill:none;stroke:#ff526c;stroke-width:1.71948218;stroke-linecap:round;stroke-linejoin:round;stroke-miterlimit:4;stroke-dasharray:none;stroke-opacity:1"
       d="m 12.773751,24.786703 2.114,3.860347 3.400782,-6.98539"
       id="path886"
       inkscape:connector-curvature="0" />
    <path
       style="fill:none;stroke:#ff526c;stroke-width:1.71948218;stroke-linecap:round;stroke-linejoin:round;stroke-miterlimit:4;stroke-dasharray:none;stroke-opacity:1"
       d="m 12.774009,34.902699 2.114,3.860347 3.400782,-6.985389"
       id="path886-5"
       inkscape:connector-curvature="0" />
    <path
       style="color:#000000;font-style:normal;font-variant:normal;font-weight:normal;font-stretch:normal;font-size:medium;line-height:normal;font-family:sans-serif;font-variant-ligatures:normal;font-variant-position:normal;font-variant-caps:normal;font-variant-numeric:normal;font-variant-alternates:normal;font-feature-settings:normal;text-indent:0;text-align:start;text-decoration:none;text-decoration-line:none;text-decoration-style:solid;text-decoration-color:#000000;letter-spacing:normal;word-spacing:normal;text-transform:none;writing-mode:lr-tb;direction:ltr;text-orientation:mixed;dominant-baseline:auto;baseline-shift:baseline;text-anchor:start;white-space:normal;shape-padding:0;clip-rule:nonzero;display:inline;overflow:visible;visibility:visible;opacity:1;isolation:auto;mix-blend-mode:normal;color-interpolation:sRGB;color-interpolation-filters:linearRGB;solid-color:#000000;solid-opacity:1;vector-effect:none;fill:#374266;fill-opacity:1;fill-rule:nonzero;stroke:none;stroke-width:1.37558579;stroke-linecap:round;stroke-linejoin:miter;stroke-miterlimit:4;stroke-dasharray:none;stroke-dashoffset:0;stroke-opacity:1;color-rendering:auto;image-rendering:auto;shape-rendering:auto;text-rendering:auto;enable-background:accumulate"
       d="m 22.193927,6.0943015 c -1.819325,0.195078 -3.47324,1.60499 -3.261785,4.0396345 l 1.347235,0.01898 c -0.01747,-1.8481585 1.017823,-2.5785675 2.060975,-2.6904205 0.521577,-0.05593 1.010639,0.09237 1.418572,0.53398 0.407934,0.441609 0.748529,1.22591 0.759661,2.5019805 v 0.01276 l 6.88e-4,0.01276 c 0.102185,2.205066 -0.446825,3.14194 -0.901387,3.574642 -0.454559,0.432702 -0.813395,0.416438 -0.813395,0.416438 -0.917058,0.01568 -0.893535,1.391267 0.02352,1.375586 0,0 0.943927,-0.0391 1.73829,-0.795261 0.792589,-0.75447 1.43627,-2.170004 1.32588,-4.62043 -0.01551,-1.5114605 -0.42679,-2.6584315 -1.122366,-3.4114255 -0.697577,-0.75516 -1.666202,-1.066763 -2.575864,-0.969224 z"
       id="path919-9"
       inkscape:connector-curvature="0"
       sodipodi:nodetypes="cccssccccccccscc" />
    <path
       style="color:#000000;font-style:normal;font-variant:normal;font-weight:normal;font-stretch:normal;font-size:medium;line-height:normal;font-family:sans-serif;font-variant-ligatures:normal;font-variant-position:normal;font-variant-caps:normal;font-variant-numeric:normal;font-variant-alternates:normal;font-feature-settings:normal;text-indent:0;text-align:start;text-decoration:none;text-decoration-line:none;text-decoration-style:solid;text-decoration-color:#000000;letter-spacing:normal;word-spacing:normal;text-transform:none;writing-mode:lr-tb;direction:ltr;text-orientation:mixed;dominant-baseline:auto;baseline-shift:baseline;text-anchor:start;white-space:normal;shape-padding:0;clip-rule:nonzero;display:inline;overflow:visible;visibility:visible;opacity:1;isolation:auto;mix-blend-mode:normal;color-interpolation:sRGB;color-interpolation-filters:linearRGB;solid-color:#000000;solid-opacity:1;vector-effect:none;fill:#374266;fill-opacity:1;fill-rule:nonzero;stroke:none;stroke-width:1.37558579;stroke-linecap:round;stroke-linejoin:miter;stroke-miterlimit:4;stroke-dasharray:none;stroke-dashoffset:0;stroke-opacity:1;color-rendering:auto;image-rendering:auto;shape-rendering:auto;text-rendering:auto;enable-background:accumulate"
       d="m 30.723695,6.1238415 c -1.819326,0.195078 -3.398092,1.60499 -3.280063,4.0396335 l 1.365513,0.01898 c -0.01747,-1.8481585 1.017823,-2.5785675 2.060974,-2.6904195 0.521574,-0.05593 1.010636,0.09237 1.41857,0.53398 0.407933,0.441608 0.748528,1.225909 0.75966,2.5019795 v 0.01276 l 6.88e-4,0.01276 c 0.102185,2.205067 -0.446825,3.141941 -0.901387,3.574643 -0.454559,0.432702 -0.813394,0.416437 -0.813394,0.416437 -0.917055,0.01568 -0.893533,1.391267 0.02352,1.375586 0,0 0.943927,-0.0391 1.73829,-0.795261 0.792585,-0.754477 1.436267,-2.170011 1.325876,-4.620437 -0.01551,-1.5114605 -0.426789,-2.6584305 -1.122365,-3.4114255 -0.697576,-0.75516 -1.666202,-1.066763 -2.575863,-0.969223 z"
       id="path919-7"
       inkscape:connector-curvature="0"
       sodipodi:nodetypes="cccssccccccccscc" />
    <path
       style="color:#000000;font-style:normal;font-variant:normal;font-weight:normal;font-stretch:normal;font-size:medium;line-height:normal;font-family:sans-serif;font-variant-ligatures:normal;font-variant-position:normal;font-variant-caps:normal;font-variant-numeric:normal;font-variant-alternates:normal;font-feature-settings:normal;text-indent:0;text-align:start;text-decoration:none;text-decoration-line:none;text-decoration-style:solid;text-decoration-color:#000000;letter-spacing:normal;word-spacing:normal;text-transform:none;writing-mode:lr-tb;direction:ltr;text-orientation:mixed;dominant-baseline:auto;baseline-shift:baseline;text-anchor:start;white-space:normal;shape-padding:0;clip-rule:nonzero;display:inline;overflow:visible;visibility:visible;opacity:1;isolation:auto;mix-blend-mode:normal;color-interpolation:sRGB;color-interpolation-filters:linearRGB;solid-color:#000000;solid-opacity:1;vector-effect:none;fill:#374266;fill-opacity:1;fill-rule:nonzero;stroke:none;stroke-width:1.37558579;stroke-linecap:round;stroke-linejoin:miter;stroke-miterlimit:4;stroke-dasharray:none;stroke-dashoffset:0;stroke-opacity:1;color-rendering:auto;image-rendering:auto;shape-rendering:auto;text-rendering:auto;enable-background:accumulate"
       d="m 39.078498,6.1101985 c -1.819326,0.195078 -3.398093,1.60499 -3.280064,4.0396335 l 1.365513,0.01898 c -0.01747,-1.8481585 1.017824,-2.5785675 2.060975,-2.6904195 0.521574,-0.05593 1.010636,0.09237 1.418569,0.53398 0.407934,0.441608 0.748529,1.225909 0.759661,2.5019805 v 0.01276 l 6.88e-4,0.01276 c 0.102185,2.205066 -0.446825,3.14194 -0.901387,3.574642 -0.454559,0.432702 -0.813395,0.416437 -0.813395,0.416437 -0.917055,0.01568 -0.893532,1.391267 0.02352,1.375586 0,0 0.943927,-0.0391 1.73829,-0.795261 0.792581,-0.754477 1.436263,-2.170011 1.325872,-4.620436 -0.01551,-1.5114615 -0.426789,-2.6584315 -1.122365,-3.4114265 -0.697576,-0.75516 -1.666202,-1.066763 -2.575863,-0.969223 z"
       id="path919-7-3"
       inkscape:connector-curvature="0"
       sodipodi:nodetypes="cccssccccccccscc" />
    <g
       id="g3170"
       transform="matrix(1.2568759,0,0,1.2568759,-13.875267,-12.529047)">
      <path
         sodipodi:nodetypes="cc"
         inkscape:connector-curvature="0"
         id="path3148"
         d="M 54.790458,38.77802 43.579806,45.374221"
         style="fill:none;stroke:#374266;stroke-width:1.31671691;stroke-linecap:butt;stroke-linejoin:miter;stroke-miterlimit:4;stroke-dasharray:none;stroke-opacity:1" />
      <path
         sodipodi:nodetypes="cc"
         inkscape:connector-curvature="0"
         id="path3148-8"
         d="M 54.796307,56.449824 43.815861,49.477137"
         style="fill:none;stroke:#374266;stroke-width:1.31671691;stroke-linecap:butt;stroke-linejoin:miter;stroke-miterlimit:4;stroke-dasharray:none;stroke-opacity:1" />
      <ellipse
         ry="5.1918063"
         rx="5.2258544"
         cy="36.590363"
         cx="58.633247"
         id="path3125"
         style="fill:#2c5aa0;fill-opacity:1;stroke:none;stroke-width:20.20794296;stroke-linecap:round;stroke-linejoin:round;stroke-miterlimit:4;stroke-dasharray:none;stroke-dashoffset:0;stroke-opacity:0.96078431" />
      <ellipse
         ry="5.1918068"
         rx="5.2258544"
         cy="47.406876"
         cx="39.383579"
         id="path3125-1"
         style="fill:#2c5aa0;fill-opacity:1;stroke:none;stroke-width:20.20794296;stroke-linecap:round;stroke-linejoin:round;stroke-miterlimit:4;stroke-dasharray:none;stroke-dashoffset:0;stroke-opacity:0.96078431" />
      <ellipse
         ry="5.1918068"
         rx="5.2258544"
         cy="58.255486"
         cx="59.096291"
         id="path3125-3"
         style="fill:#2c5aa0;fill-opacity:1;stroke:none;stroke-width:20.20794296;stroke-linecap:round;stroke-linejoin:round;stroke-miterlimit:4;stroke-dasharray:none;stroke-dashoffset:0;stroke-opacity:0.96078431" />
    </g>
  </g>
</svg>
