<?xml version="1.0" encoding="UTF-8" standalone="no"?>
<!-- Created with Inkscape (http://www.inkscape.org/) -->

<svg
   xmlns:dc="http://purl.org/dc/elements/1.1/"
   xmlns:cc="http://creativecommons.org/ns#"
   xmlns:rdf="http://www.w3.org/1999/02/22-rdf-syntax-ns#"
   xmlns:svg="http://www.w3.org/2000/svg"
   xmlns="http://www.w3.org/2000/svg"
   xmlns:sodipodi="http://sodipodi.sourceforge.net/DTD/sodipodi-0.dtd"
   xmlns:inkscape="http://www.inkscape.org/namespaces/inkscape"
   width="35.832726mm"
   height="39.386429mm"
   viewBox="0 0 35.832726 39.386429"
   version="1.1"
   id="svg8"
   inkscape:version="0.92.2 (5c3e80d, 2017-08-06)"
   sodipodi:docname="list_archive.svg"
   inkscape:export-filename="C:\aps\list_archive_small.png"
   inkscape:export-xdpi="19.373434"
   inkscape:export-ydpi="19.373434">
  <defs
     id="defs2">
    <marker
       inkscape:stockid="Arrow2Lend"
       orient="auto"
       refY="0"
       refX="0"
       id="Arrow2Lend"
       style="overflow:visible"
       inkscape:isstock="true">
      <path
         id="path1101"
         style="fill:#000000;fill-opacity:1;fill-rule:evenodd;stroke:#000000;stroke-width:0.625;stroke-linejoin:round;stroke-opacity:1"
         d="M 8.7185878,4.0337352 -2.2072895,0.01601326 8.7185884,-4.0017078 c -1.7454984,2.3720609 -1.7354408,5.6174519 -6e-7,8.035443 z"
         transform="matrix(-1.1,0,0,-1.1,-1.1,0)"
         inkscape:connector-curvature="0" />
    </marker>
    <inkscape:perspective
       sodipodi:type="inkscape:persp3d"
       inkscape:vp_x="-1.133929 : 196.50297 : 1"
       inkscape:vp_y="0 : 999.99999 : 0"
       inkscape:vp_z="203.19644 : 221.82738 : 1"
       inkscape:persp3d-origin="105.00001 : 98.999999 : 1"
       id="perspective991" />
  </defs>
  <sodipodi:namedview
     id="base"
     pagecolor="#ffffff"
     bordercolor="#666666"
     borderopacity="1.0"
     inkscape:pageopacity="0.0"
     inkscape:pageshadow="2"
     inkscape:zoom="0.76435185"
     inkscape:cx="172.78756"
     inkscape:cy="-186.52433"
     inkscape:document-units="mm"
     inkscape:current-layer="layer1"
     showgrid="false"
     showguides="true"
     inkscape:guide-bbox="true"
     inkscape:window-width="1920"
     inkscape:window-height="1027"
     inkscape:window-x="1912"
     inkscape:window-y="-8"
     inkscape:window-maximized="1"
     fit-margin-top="0"
     fit-margin-left="0"
     fit-margin-right="0"
     fit-margin-bottom="0">
    <sodipodi:guide
       position="253.07162,-17.896922"
       orientation="1,0"
       id="guide869"
       inkscape:locked="false" />
  </sodipodi:namedview>
  <metadata
     id="metadata5">
    <rdf:RDF>
      <cc:Work
         rdf:about="">
        <dc:format>image/svg+xml</dc:format>
        <dc:type
           rdf:resource="http://purl.org/dc/dcmitype/StillImage" />
        <dc:title></dc:title>
      </cc:Work>
    </rdf:RDF>
  </metadata>
  <g
     inkscape:label="Layer 1"
     inkscape:groupmode="layer"
     id="layer1"
     transform="translate(-4.5762033,-3.9849189)">
    <path
       style="fill:#f2f2f7;fill-opacity:1;stroke:none;stroke-width:0.20650919;stroke-linecap:round;stroke-linejoin:round;stroke-miterlimit:4;stroke-dasharray:none;stroke-opacity:1"
       d="M 29.345512,6.8241792 5.4005242,6.8675445 c 0,0 -0.2576075,-0.021737 -0.5514323,0.2148154 C 4.5437767,7.3993598 4.577336,7.5968366 4.577336,7.5968366 L 4.674625,34.024968 H 4.581232 l -0.00168,5.878335 c 0,0 -0.016734,0.302933 0.2564226,0.572425 0.2121162,0.265304 0.6140317,0.302769 0.6144054,0.3028 l 23.944862,-0.04335 c 0,0 0.25748,0.02176 0.551308,-0.214815 0.305313,-0.316997 0.271882,-0.514477 0.271882,-0.514477 l -0.0022,-32.3064645 c 0,0 0.01671,-0.3029303 -0.256416,-0.5724236 -0.212218,-0.26543 -0.614407,-0.3028038 -0.614407,-0.3028038 z"
       id="rect828"
       inkscape:connector-curvature="0"
       inkscape:export-filename="C:\aps\list_archive_small.png"
       inkscape:export-xdpi="46.595001"
       inkscape:export-ydpi="46.595001" />
    <path
       style="fill:#ffe261;fill-opacity:1;stroke:none;stroke-width:0.20650919;stroke-linecap:round;stroke-linejoin:round;stroke-miterlimit:4;stroke-dasharray:none;stroke-opacity:1"
       d="M 29.345468,6.8241859 5.4004714,6.8675512 c 0,0 -0.2574801,-0.021737 -0.5513066,0.2148162 C 4.5438496,7.3993673 4.5772824,7.5968441 4.5772824,7.5968441 L 4.5992709,13.57775 H 30.214521 l 0.0018,-5.8783367 c 0,0 0.01676,-0.3029294 -0.256421,-0.5724228 C 29.747643,6.8615597 29.345458,6.8241868 29.345458,6.8241868 Z"
       id="rect828-8"
       inkscape:connector-curvature="0"
       sodipodi:nodetypes="cccccccccc"
       inkscape:export-filename="C:\aps\list_archive_small.png"
       inkscape:export-xdpi="46.595001"
       inkscape:export-ydpi="46.595001" />
    <path
       style="color:#000000;font-style:normal;font-variant:normal;font-weight:normal;font-stretch:normal;font-size:medium;line-height:normal;font-family:sans-serif;font-variant-ligatures:normal;font-variant-position:normal;font-variant-caps:normal;font-variant-numeric:normal;font-variant-alternates:normal;font-feature-settings:normal;text-indent:0;text-align:start;text-decoration:none;text-decoration-line:none;text-decoration-style:solid;text-decoration-color:#000000;letter-spacing:normal;word-spacing:normal;text-transform:none;writing-mode:lr-tb;direction:ltr;text-orientation:mixed;dominant-baseline:auto;baseline-shift:baseline;text-anchor:start;white-space:normal;shape-padding:0;clip-rule:nonzero;display:inline;overflow:visible;visibility:visible;opacity:1;isolation:auto;mix-blend-mode:normal;color-interpolation:sRGB;color-interpolation-filters:linearRGB;solid-color:#000000;solid-opacity:1;vector-effect:none;fill:#374266;fill-opacity:1;fill-rule:nonzero;stroke:none;stroke-width:0.9729526;stroke-linecap:round;stroke-linejoin:miter;stroke-miterlimit:4;stroke-dasharray:none;stroke-dashoffset:0;stroke-opacity:1;color-rendering:auto;image-rendering:auto;shape-rendering:auto;text-rendering:auto;enable-background:accumulate"
       d="M 8.7620756,4.0362597 C 7.4752659,4.1742385 6.3054511,5.1714703 6.4550132,6.8934958 l 0.9528995,0.013424 C 7.3955525,5.5997166 8.1278202,5.0830981 8.865642,5.0039847 9.2345538,4.9644238 9.5804681,5.0693217 9.8689994,5.3816684 10.157531,5.6940183 10.398434,6.2487548 10.406308,7.1513212 v 0.00903 l 4.87e-4,0.00902 c 0.07228,1.5596449 -0.316039,2.2222956 -0.6375517,2.5283465 -0.3215099,0.3060503 -0.5753146,0.2945464 -0.5753146,0.2945464 -0.648636,0.011086 -0.6319979,0.9840449 0.016634,0.9729519 0,0 0.6676396,-0.02765 1.2294933,-0.562487 C 11.000654,9.8690865 11.455931,8.8678781 11.377851,7.1346907 11.366882,6.0656334 11.075983,5.2543805 10.584002,4.7217868 10.090606,4.187662 9.405496,3.9672649 8.7620924,4.0362547 Z"
       id="path919"
       inkscape:connector-curvature="0"
       sodipodi:nodetypes="cccssccccccccscc"
       inkscape:export-filename="C:\aps\list_archive_small.png"
       inkscape:export-xdpi="46.595001"
       inkscape:export-ydpi="46.595001" />
    <path
       style="fill:none;stroke:#374266;stroke-width:1.21619081;stroke-linecap:round;stroke-linejoin:miter;stroke-miterlimit:4;stroke-dasharray:none;stroke-opacity:1"
       d="M 13.51063,18.323538 H 27.877875"
       id="path852"
       inkscape:connector-curvature="0"
       inkscape:export-filename="C:\aps\list_archive_small.png"
       inkscape:export-xdpi="46.595001"
       inkscape:export-ydpi="46.595001" />
    <path
       style="fill:none;stroke:#374266;stroke-width:1.21619081;stroke-linecap:round;stroke-linejoin:miter;stroke-miterlimit:4;stroke-dasharray:none;stroke-opacity:1"
       d="M 13.51063,25.084593 H 27.877875"
       id="path852-2"
       inkscape:connector-curvature="0"
       inkscape:export-filename="C:\aps\list_archive_small.png"
       inkscape:export-xdpi="46.595001"
       inkscape:export-ydpi="46.595001" />
    <path
       style="fill:none;stroke:#374266;stroke-width:1.21619081;stroke-linecap:round;stroke-linejoin:miter;stroke-miterlimit:4;stroke-dasharray:none;stroke-opacity:1"
       d="M 13.51063,31.910658 H 27.877875"
       id="path852-2-6"
       inkscape:connector-curvature="0"
       inkscape:export-filename="C:\aps\list_archive_small.png"
       inkscape:export-xdpi="46.595001"
       inkscape:export-ydpi="46.595001" />
    <path
       style="fill:none;stroke:#ff526c;stroke-width:1.21619081;stroke-linecap:round;stroke-linejoin:round;stroke-miterlimit:4;stroke-dasharray:none;stroke-opacity:1"
       d="m 7.9847692,17.218366 1.4952339,2.730426 2.4053749,-4.94077"
       id="path886"
       inkscape:connector-curvature="0"
       inkscape:export-filename="C:\aps\list_archive_small.png"
       inkscape:export-xdpi="46.595001"
       inkscape:export-ydpi="46.595001" />
    <path
       style="fill:none;stroke:#ff526c;stroke-width:1.21619081;stroke-linecap:round;stroke-linejoin:round;stroke-miterlimit:4;stroke-dasharray:none;stroke-opacity:1"
       d="M 7.9849519,24.373412 9.4801857,27.103839 11.88556,22.163072"
       id="path886-5"
       inkscape:connector-curvature="0"
       inkscape:export-filename="C:\aps\list_archive_small.png"
       inkscape:export-xdpi="46.595001"
       inkscape:export-ydpi="46.595001" />
    <path
       style="color:#000000;font-style:normal;font-variant:normal;font-weight:normal;font-stretch:normal;font-size:medium;line-height:normal;font-family:sans-serif;font-variant-ligatures:normal;font-variant-position:normal;font-variant-caps:normal;font-variant-numeric:normal;font-variant-alternates:normal;font-feature-settings:normal;text-indent:0;text-align:start;text-decoration:none;text-decoration-line:none;text-decoration-style:solid;text-decoration-color:#000000;letter-spacing:normal;word-spacing:normal;text-transform:none;writing-mode:lr-tb;direction:ltr;text-orientation:mixed;dominant-baseline:auto;baseline-shift:baseline;text-anchor:start;white-space:normal;shape-padding:0;clip-rule:nonzero;display:inline;overflow:visible;visibility:visible;opacity:1;isolation:auto;mix-blend-mode:normal;color-interpolation:sRGB;color-interpolation-filters:linearRGB;solid-color:#000000;solid-opacity:1;vector-effect:none;fill:#374266;fill-opacity:1;fill-rule:nonzero;stroke:none;stroke-width:0.9729526;stroke-linecap:round;stroke-linejoin:miter;stroke-miterlimit:4;stroke-dasharray:none;stroke-dashoffset:0;stroke-opacity:1;color-rendering:auto;image-rendering:auto;shape-rendering:auto;text-rendering:auto;enable-background:accumulate"
       d="m 14.647666,3.9972192 c -1.286811,0.1379796 -2.456625,1.1352106 -2.307063,2.8572361 l 0.9529,0.013424 c -0.01236,-1.3072044 0.719908,-1.823823 1.457729,-1.9029364 0.368913,-0.039561 0.714825,0.065337 1.003355,0.3776846 0.288532,0.3123499 0.529437,0.8670864 0.53731,1.7696519 v 0.00903 l 4.43e-4,0.00903 c 0.07228,1.5596449 -0.31604,2.2222956 -0.63755,2.5283456 -0.32151,0.306051 -0.575315,0.2945464 -0.575315,0.2945464 -0.648635,0.011095 -0.631998,0.9840446 0.01663,0.9729536 0,0 0.667639,-0.02765 1.229492,-0.562489 C 16.886192,9.8300443 17.341466,8.8288368 17.263385,7.0956493 17.252432,6.0265921 16.96152,5.2153392 16.469539,4.6827454 15.97614,4.1486207 15.291032,3.9282236 14.647628,3.9972134 Z"
       id="path919-9"
       inkscape:connector-curvature="0"
       sodipodi:nodetypes="cccssccccccccscc"
       inkscape:export-filename="C:\aps\list_archive_small.png"
       inkscape:export-xdpi="46.595001"
       inkscape:export-ydpi="46.595001" />
    <path
       style="color:#000000;font-style:normal;font-variant:normal;font-weight:normal;font-stretch:normal;font-size:medium;line-height:normal;font-family:sans-serif;font-variant-ligatures:normal;font-variant-position:normal;font-variant-caps:normal;font-variant-numeric:normal;font-variant-alternates:normal;font-feature-settings:normal;text-indent:0;text-align:start;text-decoration:none;text-decoration-line:none;text-decoration-style:solid;text-decoration-color:#000000;letter-spacing:normal;word-spacing:normal;text-transform:none;writing-mode:lr-tb;direction:ltr;text-orientation:mixed;dominant-baseline:auto;baseline-shift:baseline;text-anchor:start;white-space:normal;shape-padding:0;clip-rule:nonzero;display:inline;overflow:visible;visibility:visible;opacity:1;isolation:auto;mix-blend-mode:normal;color-interpolation:sRGB;color-interpolation-filters:linearRGB;solid-color:#000000;solid-opacity:1;vector-effect:none;fill:#374266;fill-opacity:1;fill-rule:nonzero;stroke:none;stroke-width:0.9729526;stroke-linecap:round;stroke-linejoin:miter;stroke-miterlimit:4;stroke-dasharray:none;stroke-dashoffset:0;stroke-opacity:1;color-rendering:auto;image-rendering:auto;shape-rendering:auto;text-rendering:auto;enable-background:accumulate"
       d="M 20.680774,4.0181125 C 19.393963,4.1560913 18.2773,5.153323 18.360785,6.8753486 l 0.965828,0.013424 c -0.01237,-1.3072036 0.719905,-1.823823 1.457726,-1.9029364 0.368912,-0.039561 0.714824,0.065337 1.003355,0.3776845 0.288535,0.31235 0.529437,0.8670865 0.537309,1.7696528 v 0.00903 l 4.44e-4,0.00903 c 0.07228,1.5596441 -0.31604,2.2222956 -0.63755,2.5283457 -0.32151,0.30605 -0.575315,0.2945471 -0.575315,0.2945471 -0.648636,0.011087 -0.631996,0.9840447 0.01663,0.9729527 0,0 0.667639,-0.02765 1.229491,-0.562489 C 22.919302,9.8509479 23.374577,8.8497404 23.296496,7.116553 23.285546,6.0474957 22.994627,5.2362428 22.50265,4.703649 22.00925,4.1695243 21.324142,3.9491272 20.680737,4.018117 Z"
       id="path919-7"
       inkscape:connector-curvature="0"
       sodipodi:nodetypes="cccssccccccccscc"
       inkscape:export-filename="C:\aps\list_archive_small.png"
       inkscape:export-xdpi="46.595001"
       inkscape:export-ydpi="46.595001" />
    <path
       style="color:#000000;font-style:normal;font-variant:normal;font-weight:normal;font-stretch:normal;font-size:medium;line-height:normal;font-family:sans-serif;font-variant-ligatures:normal;font-variant-position:normal;font-variant-caps:normal;font-variant-numeric:normal;font-variant-alternates:normal;font-feature-settings:normal;text-indent:0;text-align:start;text-decoration:none;text-decoration-line:none;text-decoration-style:solid;text-decoration-color:#000000;letter-spacing:normal;word-spacing:normal;text-transform:none;writing-mode:lr-tb;direction:ltr;text-orientation:mixed;dominant-baseline:auto;baseline-shift:baseline;text-anchor:start;white-space:normal;shape-padding:0;clip-rule:nonzero;display:inline;overflow:visible;visibility:visible;opacity:1;isolation:auto;mix-blend-mode:normal;color-interpolation:sRGB;color-interpolation-filters:linearRGB;solid-color:#000000;solid-opacity:1;vector-effect:none;fill:#374266;fill-opacity:1;fill-rule:nonzero;stroke:none;stroke-width:0.9729526;stroke-linecap:round;stroke-linejoin:miter;stroke-miterlimit:4;stroke-dasharray:none;stroke-dashoffset:0;stroke-opacity:1;color-rendering:auto;image-rendering:auto;shape-rendering:auto;text-rendering:auto;enable-background:accumulate"
       d="M 26.590133,4.0084632 C 25.303323,4.1464419 24.18666,5.1436729 24.27014,6.8656993 l 0.965829,0.013424 c -0.01237,-1.3072044 0.719908,-1.823823 1.457729,-1.9029364 0.368909,-0.039561 0.714825,0.065337 1.003356,0.3776845 0.28853,0.3123492 0.529433,0.8670865 0.537305,1.7696528 v 0.00903 l 4.43e-4,0.00902 c 0.07228,1.5596449 -0.31604,2.2222964 -0.637549,2.5283465 -0.32151,0.3060501 -0.575316,0.2945463 -0.575316,0.2945463 -0.648632,0.011087 -0.631995,0.984045 0.01663,0.972954 0,0 0.667643,-0.02765 1.229497,-0.562489 C 28.828654,9.84129 29.283928,8.8400824 29.205847,7.106895 29.194895,6.0378369 28.903983,5.226584 28.412001,4.6939911 27.918602,4.1598655 27.233494,3.9394684 26.590088,4.0084582 Z"
       id="path919-7-3"
       inkscape:connector-curvature="0"
       sodipodi:nodetypes="cccssccccccccscc"
       inkscape:export-filename="C:\aps\list_archive_small.png"
       inkscape:export-xdpi="46.595001"
       inkscape:export-ydpi="46.595001" />
    <path
       style="fill:#b55d14;fill-opacity:1;stroke:none;stroke-width:0.35497734;stroke-linecap:round;stroke-linejoin:round;stroke-miterlimit:4;stroke-dasharray:none;stroke-opacity:1"
       d="m 36.985202,21.571118 -18.894583,0.06987 c 0,0 -0.471475,-0.03502 -1.009397,0.346781 -0.558954,0.511626 -0.497774,0.830348 -0.497774,0.830348 l 0.04025,9.652929 -0.0031,9.487666 c 0,0 -0.03045,0.488932 0.46968,0.923887 0.388519,0.428395 1.124718,0.48875 1.124718,0.48875 l 18.894587,-0.07025 c 0,0 0.471466,0.03502 1.009392,-0.346776 0.558951,-0.511632 0.497775,-0.830349 0.497775,-0.830349 l -0.04025,-9.652929 0.0031,-9.487303 c 0,0 0.03041,-0.488932 -0.469676,-0.923886 C 37.72141,21.631461 36.985211,21.57111 36.985211,21.57111 Z"
       id="rect828-8-3-5"
       inkscape:connector-curvature="0"
       inkscape:export-filename="C:\aps\list_archive_small.png"
       inkscape:export-xdpi="46.595001"
       inkscape:export-ydpi="46.595001" />
    <path
       style="fill:#ed8c40;fill-opacity:1;stroke:none;stroke-width:0.35497734;stroke-linecap:round;stroke-linejoin:round;stroke-miterlimit:4;stroke-dasharray:none;stroke-opacity:1"
       d="m 38.775408,21.571114 -14.239492,0.06987 c 0,0 -0.471476,-0.03502 -1.009397,0.34678 -0.558954,0.511627 -0.497775,0.830348 -0.497775,0.830348 l 0.04025,9.65293 -0.0031,9.48767 c 0,0 -0.03045,0.488932 0.469681,0.923887 0.388518,0.428395 1.124718,0.488745 1.124718,0.488745 l 14.239496,-0.07025 c 0,0 0.471467,0.03502 1.009393,-0.346781 0.55895,-0.511627 0.497774,-0.830348 0.497774,-0.830348 l -0.04025,-9.652929 0.0031,-9.487303 c 0,0 0.03041,-0.488932 -0.469677,-0.923887 -0.388514,-0.428395 -1.124713,-0.488745 -1.124713,-0.488745 z"
       id="rect828-8-3"
       inkscape:connector-curvature="0"
       sodipodi:nodetypes="cccccccccccccccc"
       inkscape:export-filename="C:\aps\list_archive_small.png"
       inkscape:export-xdpi="46.595001"
       inkscape:export-ydpi="46.595001" />
    <path
       style="fill:#b55d14;fill-opacity:1;stroke:#b55d14;stroke-width:0.86861008;stroke-linecap:round;stroke-linejoin:round;stroke-miterlimit:4;stroke-dasharray:none;stroke-opacity:1"
       d="m 31.153628,28.569872 -3.275753,3.340786 h 6.616544 z m 1.411705,3.573244 -2.814865,0.04916 v 3.72786 l 2.814865,0.02168 z"
       id="path1446"
       inkscape:connector-curvature="0"
       sodipodi:nodetypes="ccccccccc"
       inkscape:export-filename="C:\aps\list_archive_small.png"
       inkscape:export-xdpi="46.595001"
       inkscape:export-ydpi="46.595001" />
    <path
       style="fill:#c5c6e0;fill-opacity:1;stroke:none;stroke-width:0.35497734;stroke-linecap:round;stroke-linejoin:round;stroke-miterlimit:4;stroke-dasharray:none;stroke-opacity:1"
       d="m 21.658863,21.611598 -1.563134,0.02291 c 0,0 -0.471565,-0.03498 -1.009486,0.346803 -0.558955,0.511627 -0.497756,0.830128 -0.497756,0.830128 l 0.01718,4.089941 h 1.838468 l -0.01718,-4.138044 c 0,0 -0.0612,-0.31873 0.497756,-0.830358 0.283818,-0.201442 0.546821,-0.285636 0.734152,-0.321376 z"
       id="rect828-8-3-5-8"
       inkscape:connector-curvature="0"
       inkscape:export-filename="C:\aps\list_archive_small.png"
       inkscape:export-xdpi="46.595001"
       inkscape:export-ydpi="46.595001" />
    <rect
       style="fill:#ebebf2;fill-opacity:1;stroke:none;stroke-width:3.13711095;stroke-linecap:round;stroke-linejoin:round;stroke-miterlimit:4;stroke-dasharray:none;stroke-dashoffset:0;stroke-opacity:1"
       id="rect1488"
       width="1.8212897"
       height="5.2806015"
       x="30.187748"
       y="21.596985"
       inkscape:export-filename="C:\aps\list_archive_small.png"
       inkscape:export-xdpi="46.595001"
       inkscape:export-ydpi="46.595001" />
    <rect
       style="fill:#c5c6e0;fill-opacity:1;stroke:none;stroke-width:1.28534043;stroke-linecap:round;stroke-linejoin:round;stroke-miterlimit:4;stroke-dasharray:none;stroke-dashoffset:0;stroke-opacity:1"
       id="rect1488-2"
       width="1.8212897"
       height="0.88646168"
       x="30.187748"
       y="21.596985"
       inkscape:export-filename="C:\aps\list_archive_small.png"
       inkscape:export-xdpi="46.595001"
       inkscape:export-ydpi="46.595001" />
  </g>
</svg>
