<?xml version="1.0" encoding="UTF-8" standalone="no"?>
<!-- Created with Inkscape (http://www.inkscape.org/) -->

<svg
   xmlns:dc="http://purl.org/dc/elements/1.1/"
   xmlns:cc="http://creativecommons.org/ns#"
   xmlns:rdf="http://www.w3.org/1999/02/22-rdf-syntax-ns#"
   xmlns:svg="http://www.w3.org/2000/svg"
   xmlns="http://www.w3.org/2000/svg"
   xmlns:sodipodi="http://sodipodi.sourceforge.net/DTD/sodipodi-0.dtd"
   xmlns:inkscape="http://www.inkscape.org/namespaces/inkscape"
   width="77.738762mm"
   height="105.5699mm"
   viewBox="0 0 77.738762 105.5699"
   version="1.1"
   id="svg8"
   inkscape:version="0.92.2 (5c3e80d, 2017-08-06)"
   sodipodi:docname="list_add.svg"
   inkscape:export-filename="C:\aps\list_add.png"
   inkscape:export-xdpi="96"
   inkscape:export-ydpi="96">
  <defs
     id="defs2" />
  <sodipodi:namedview
     id="base"
     pagecolor="#ffffff"
     bordercolor="#666666"
     borderopacity="1.0"
     inkscape:pageopacity="0.0"
     inkscape:pageshadow="2"
     inkscape:zoom="0.7"
     inkscape:cx="-137.12657"
     inkscape:cy="89.576617"
     inkscape:document-units="mm"
     inkscape:current-layer="layer1"
     showgrid="false"
     showguides="true"
     inkscape:guide-bbox="true"
     inkscape:window-width="1920"
     inkscape:window-height="1027"
     inkscape:window-x="3832"
     inkscape:window-y="-8"
     inkscape:window-maximized="1"
     fit-margin-top="0"
     fit-margin-left="0"
     fit-margin-right="0"
     fit-margin-bottom="0">
    <sodipodi:guide
       position="230.57162,80.825017"
       orientation="1,0"
       id="guide869"
       inkscape:locked="false" />
  </sodipodi:namedview>
  <metadata
     id="metadata5">
    <rdf:RDF>
      <cc:Work
         rdf:about="">
        <dc:format>image/svg+xml</dc:format>
        <dc:type
           rdf:resource="http://purl.org/dc/dcmitype/StillImage" />
        <dc:title></dc:title>
      </cc:Work>
    </rdf:RDF>
  </metadata>
  <g
     inkscape:label="Layer 1"
     inkscape:groupmode="layer"
     id="layer1"
     transform="translate(-27.076203,-36.523383)">
    <path
       style="fill:#f2f2f7;fill-opacity:1;stroke:none;stroke-width:0.46588069;stroke-linecap:round;stroke-linejoin:round;stroke-miterlimit:4;stroke-dasharray:none;stroke-opacity:1"
       d="m 82.955279,42.928694 -54.019425,0.09783 c 0,0 -0.581157,-0.04904 -1.244019,0.48462 -0.688785,0.715145 -0.613077,1.16065 -0.613077,1.16065 l 0.219482,59.621346 h -0.210692 l -0.0037,13.26141 c 0,0 -0.03776,0.68341 0.578483,1.29138 0.478531,0.59852 1.385245,0.68304 1.386087,0.68311 l 54.019141,-0.0978 c 0,0 0.58087,0.0491 1.24374,-0.48462 0.68878,-0.71514 0.61336,-1.16065 0.61336,-1.16065 l -0.005,-72.882753 c 0,0 0.0377,-0.683404 -0.57847,-1.291375 -0.47876,-0.598806 -1.38609,-0.68312 -1.38609,-0.68312 z"
       id="rect828"
       inkscape:connector-curvature="0" />
    <path
       style="fill:#ffe261;fill-opacity:1;stroke:none;stroke-width:0.46588069;stroke-linecap:round;stroke-linejoin:round;stroke-miterlimit:4;stroke-dasharray:none;stroke-opacity:1"
       d="m 82.955179,42.928709 -54.019444,0.09783 c 0,0 -0.580869,-0.04904 -1.243737,0.484621 -0.688784,0.715145 -0.61336,1.160649 -0.61336,1.160649 l 0.04961,13.492806 h 57.787505 l 0.004,-13.261412 c 0,0 0.0378,-0.683403 -0.57848,-1.291375 -0.47876,-0.598806 -1.38608,-0.683119 -1.38608,-0.683119 z"
       id="rect828-8"
       inkscape:connector-curvature="0"
       sodipodi:nodetypes="cccccccccc" />
    <path
       style="color:#000000;font-style:normal;font-variant:normal;font-weight:normal;font-stretch:normal;font-size:medium;line-height:normal;font-family:sans-serif;font-variant-ligatures:normal;font-variant-position:normal;font-variant-caps:normal;font-variant-numeric:normal;font-variant-alternates:normal;font-feature-settings:normal;text-indent:0;text-align:start;text-decoration:none;text-decoration-line:none;text-decoration-style:solid;text-decoration-color:#000000;letter-spacing:normal;word-spacing:normal;text-transform:none;writing-mode:lr-tb;direction:ltr;text-orientation:mixed;dominant-baseline:auto;baseline-shift:baseline;text-anchor:start;white-space:normal;shape-padding:0;clip-rule:nonzero;display:inline;overflow:visible;visibility:visible;opacity:1;isolation:auto;mix-blend-mode:normal;color-interpolation:sRGB;color-interpolation-filters:linearRGB;solid-color:#000000;solid-opacity:1;vector-effect:none;fill:#374266;fill-opacity:1;fill-rule:nonzero;stroke:none;stroke-width:2.19496202;stroke-linecap:round;stroke-linejoin:miter;stroke-miterlimit:4;stroke-dasharray:none;stroke-dashoffset:0;stroke-opacity:1;color-rendering:auto;image-rendering:auto;shape-rendering:auto;text-rendering:auto;enable-background:accumulate"
       d="m 36.51945,36.639202 c -2.903019,0.311277 -5.542098,2.561012 -5.204689,6.445868 l 2.149724,0.03029 c -0.02788,-2.949027 1.624097,-4.114508 3.288608,-4.292986 0.832258,-0.08924 1.612633,0.147392 2.263554,0.852048 0.650922,0.704655 1.194395,1.95613 1.212157,3.992302 v 0.02036 l 0.0011,0.02036 c 0.163053,3.518528 -0.712979,5.013457 -1.438304,5.703901 -0.72532,0.690443 -1.297898,0.66449 -1.297898,0.66449 -1.46331,0.02502 -1.425776,2.219985 0.03753,2.194962 0,0 1.506183,-0.06238 2.773714,-1.268962 1.264698,-1.203886 2.291792,-3.462592 2.115647,-7.372629 -0.02475,-2.411773 -0.681009,-4.241943 -1.790908,-5.443464 -1.113093,-1.204976 -2.658687,-1.702187 -4.110193,-1.546547 z"
       id="path919"
       inkscape:connector-curvature="0"
       sodipodi:nodetypes="cccssccccccccscc" />
    <path
       style="fill:none;stroke:#374266;stroke-width:2.74370265;stroke-linecap:round;stroke-linejoin:miter;stroke-miterlimit:4;stroke-dasharray:none;stroke-opacity:1"
       d="M 47.232094,68.871023 H 79.644319"
       id="path852"
       inkscape:connector-curvature="0" />
    <path
       style="fill:none;stroke:#374266;stroke-width:2.74370265;stroke-linecap:round;stroke-linejoin:miter;stroke-miterlimit:4;stroke-dasharray:none;stroke-opacity:1"
       d="M 47.232094,84.123831 H 79.644319"
       id="path852-2"
       inkscape:connector-curvature="0" />
    <path
       style="fill:none;stroke:#374266;stroke-width:2.74370265;stroke-linecap:round;stroke-linejoin:miter;stroke-miterlimit:4;stroke-dasharray:none;stroke-opacity:1"
       d="M 47.232094,99.523301 H 79.644319"
       id="path852-2-6"
       inkscape:connector-curvature="0" />
    <path
       style="fill:none;stroke:#ff526c;stroke-width:2.74370265;stroke-linecap:round;stroke-linejoin:round;stroke-miterlimit:4;stroke-dasharray:none;stroke-opacity:1"
       d="m 34.765862,66.377776 3.373218,6.159788 5.426478,-11.146281"
       id="path886"
       inkscape:connector-curvature="0" />
    <path
       style="fill:none;stroke:#ff526c;stroke-width:2.74370265;stroke-linecap:round;stroke-linejoin:round;stroke-miterlimit:4;stroke-dasharray:none;stroke-opacity:1"
       d="m 34.766273,82.519421 3.373218,6.15979 5.426479,-11.146275"
       id="path886-5"
       inkscape:connector-curvature="0" />
    <path
       style="color:#000000;font-style:normal;font-variant:normal;font-weight:normal;font-stretch:normal;font-size:medium;line-height:normal;font-family:sans-serif;font-variant-ligatures:normal;font-variant-position:normal;font-variant-caps:normal;font-variant-numeric:normal;font-variant-alternates:normal;font-feature-settings:normal;text-indent:0;text-align:start;text-decoration:none;text-decoration-line:none;text-decoration-style:solid;text-decoration-color:#000000;letter-spacing:normal;word-spacing:normal;text-transform:none;writing-mode:lr-tb;direction:ltr;text-orientation:mixed;dominant-baseline:auto;baseline-shift:baseline;text-anchor:start;white-space:normal;shape-padding:0;clip-rule:nonzero;display:inline;overflow:visible;visibility:visible;opacity:1;isolation:auto;mix-blend-mode:normal;color-interpolation:sRGB;color-interpolation-filters:linearRGB;solid-color:#000000;solid-opacity:1;vector-effect:none;fill:#374266;fill-opacity:1;fill-rule:nonzero;stroke:none;stroke-width:2.19496202;stroke-linecap:round;stroke-linejoin:miter;stroke-miterlimit:4;stroke-dasharray:none;stroke-dashoffset:0;stroke-opacity:1;color-rendering:auto;image-rendering:auto;shape-rendering:auto;text-rendering:auto;enable-background:accumulate"
       d="m 49.797226,36.551128 c -2.903019,0.311278 -5.542098,2.561012 -5.204689,6.445868 l 2.149724,0.03029 c -0.02788,-2.949027 1.624097,-4.114508 3.288608,-4.292987 0.83226,-0.08924 1.61263,0.147393 2.26355,0.852049 0.65092,0.704655 1.1944,1.95613 1.21216,3.992301 v 0.02036 l 10e-4,0.02036 c 0.16305,3.518528 -0.71298,5.013457 -1.4383,5.7039 -0.72532,0.690444 -1.2979,0.664491 -1.2979,0.664491 -1.46331,0.02502 -1.425776,2.219984 0.0375,2.194963 0,0 1.50618,-0.06239 2.77371,-1.268963 1.2647,-1.203887 2.29179,-3.462593 2.11564,-7.37263 -0.0247,-2.411772 -0.681,-4.241943 -1.7909,-5.443463 -1.1131,-1.204976 -2.65869,-1.702187 -4.110196,-1.546548 z"
       id="path919-9"
       inkscape:connector-curvature="0"
       sodipodi:nodetypes="cccssccccccccscc" />
    <path
       style="color:#000000;font-style:normal;font-variant:normal;font-weight:normal;font-stretch:normal;font-size:medium;line-height:normal;font-family:sans-serif;font-variant-ligatures:normal;font-variant-position:normal;font-variant-caps:normal;font-variant-numeric:normal;font-variant-alternates:normal;font-feature-settings:normal;text-indent:0;text-align:start;text-decoration:none;text-decoration-line:none;text-decoration-style:solid;text-decoration-color:#000000;letter-spacing:normal;word-spacing:normal;text-transform:none;writing-mode:lr-tb;direction:ltr;text-orientation:mixed;dominant-baseline:auto;baseline-shift:baseline;text-anchor:start;white-space:normal;shape-padding:0;clip-rule:nonzero;display:inline;overflow:visible;visibility:visible;opacity:1;isolation:auto;mix-blend-mode:normal;color-interpolation:sRGB;color-interpolation-filters:linearRGB;solid-color:#000000;solid-opacity:1;vector-effect:none;fill:#374266;fill-opacity:1;fill-rule:nonzero;stroke:none;stroke-width:2.19496202;stroke-linecap:round;stroke-linejoin:miter;stroke-miterlimit:4;stroke-dasharray:none;stroke-dashoffset:0;stroke-opacity:1;color-rendering:auto;image-rendering:auto;shape-rendering:auto;text-rendering:auto;enable-background:accumulate"
       d="m 63.407799,36.598263 c -2.90302,0.311277 -5.42219,2.561012 -5.23385,6.445868 l 2.17889,0.03029 c -0.0279,-2.949026 1.62409,-4.114508 3.2886,-4.292986 0.83226,-0.08924 1.61263,0.147393 2.26355,0.852048 0.65093,0.704656 1.1944,1.95613 1.21216,3.992302 v 0.02036 l 0.001,0.02036 c 0.16305,3.518528 -0.71298,5.013457 -1.4383,5.703901 -0.72532,0.690443 -1.2979,0.664491 -1.2979,0.664491 -1.46331,0.02502 -1.42577,2.219984 0.0375,2.194962 0,0 1.50618,-0.06239 2.77371,-1.268963 1.2647,-1.203886 2.29179,-3.462592 2.11564,-7.372629 -0.0247,-2.411772 -0.68101,-4.241943 -1.7909,-5.443463 -1.1131,-1.204976 -2.65869,-1.702187 -4.1102,-1.546548 z"
       id="path919-7"
       inkscape:connector-curvature="0"
       sodipodi:nodetypes="cccssccccccccscc" />
    <path
       style="color:#000000;font-style:normal;font-variant:normal;font-weight:normal;font-stretch:normal;font-size:medium;line-height:normal;font-family:sans-serif;font-variant-ligatures:normal;font-variant-position:normal;font-variant-caps:normal;font-variant-numeric:normal;font-variant-alternates:normal;font-feature-settings:normal;text-indent:0;text-align:start;text-decoration:none;text-decoration-line:none;text-decoration-style:solid;text-decoration-color:#000000;letter-spacing:normal;word-spacing:normal;text-transform:none;writing-mode:lr-tb;direction:ltr;text-orientation:mixed;dominant-baseline:auto;baseline-shift:baseline;text-anchor:start;white-space:normal;shape-padding:0;clip-rule:nonzero;display:inline;overflow:visible;visibility:visible;opacity:1;isolation:auto;mix-blend-mode:normal;color-interpolation:sRGB;color-interpolation-filters:linearRGB;solid-color:#000000;solid-opacity:1;vector-effect:none;fill:#374266;fill-opacity:1;fill-rule:nonzero;stroke:none;stroke-width:2.19496202;stroke-linecap:round;stroke-linejoin:miter;stroke-miterlimit:4;stroke-dasharray:none;stroke-dashoffset:0;stroke-opacity:1;color-rendering:auto;image-rendering:auto;shape-rendering:auto;text-rendering:auto;enable-background:accumulate"
       d="m 76.739199,36.576493 c -2.90302,0.311278 -5.42219,2.561012 -5.23386,6.445869 l 2.17889,0.03029 c -0.0279,-2.949027 1.6241,-4.114508 3.28861,-4.292987 0.83225,-0.08924 1.61263,0.147393 2.26355,0.852049 0.65092,0.704655 1.19439,1.95613 1.21215,3.992302 v 0.02036 l 0.001,0.02036 c 0.16305,3.518528 -0.71298,5.013457 -1.4383,5.703901 -0.72532,0.690443 -1.2979,0.66449 -1.2979,0.66449 -1.4633,0.02502 -1.42577,2.219985 0.0375,2.194963 0,0 1.50619,-0.06239 2.77372,-1.268963 1.26469,-1.203886 2.29178,-3.462592 2.11563,-7.372629 -0.0247,-2.411773 -0.681,-4.241944 -1.7909,-5.443464 -1.1131,-1.204976 -2.65869,-1.702187 -4.1102,-1.546548 z"
       id="path919-7-3"
       inkscape:connector-curvature="0"
       sodipodi:nodetypes="cccssccccccccscc" />
    <circle
       style="fill:#43b05c;fill-opacity:1;stroke:none;stroke-width:0.72493178;stroke-linecap:round;stroke-linejoin:round;stroke-miterlimit:4;stroke-dasharray:5.79945416, 2.89972709;stroke-dashoffset:0;stroke-opacity:1"
       id="path965"
       cx="81.935387"
       cy="119.21371"
       r="22.87958" />
    <path
       style="fill:none;stroke:#ffffff;stroke-width:3.44889259;stroke-linecap:round;stroke-linejoin:miter;stroke-miterlimit:4;stroke-dasharray:none;stroke-opacity:1"
       d="m 82.445953,105.55828 v 26.00681"
       id="path974"
       inkscape:connector-curvature="0" />
    <path
       style="fill:none;stroke:#ffffff;stroke-width:3.44889259;stroke-linecap:round;stroke-linejoin:miter;stroke-miterlimit:4;stroke-dasharray:none;stroke-opacity:1"
       d="M 95.253817,118.5291 H 69.247014"
       id="path974-1"
       inkscape:connector-curvature="0" />
  </g>
</svg>
