<?xml version="1.0" encoding="UTF-8" standalone="no"?>
<!-- Created with Inkscape (http://www.inkscape.org/) -->

<svg
   xmlns:dc="http://purl.org/dc/elements/1.1/"
   xmlns:cc="http://creativecommons.org/ns#"
   xmlns:rdf="http://www.w3.org/1999/02/22-rdf-syntax-ns#"
   xmlns:svg="http://www.w3.org/2000/svg"
   xmlns="http://www.w3.org/2000/svg"
   xmlns:sodipodi="http://sodipodi.sourceforge.net/DTD/sodipodi-0.dtd"
   xmlns:inkscape="http://www.inkscape.org/namespaces/inkscape"
   width="210mm"
   height="297mm"
   viewBox="0 0 210 297"
   version="1.1"
   id="svg8"
   inkscape:version="0.92.2 (5c3e80d, 2017-08-06)"
   sodipodi:docname="logo_W.svg">
  <defs
     id="defs2">
    <marker
       inkscape:stockid="Arrow1Lend"
       orient="auto"
       refY="0.0"
       refX="0.0"
       id="Arrow1Lend"
       style="overflow:visible;"
       inkscape:isstock="true">
      <path
         id="path4643"
         d="M 0.0,0.0 L 5.0,-5.0 L -12.5,0.0 L 5.0,5.0 L 0.0,0.0 z "
         style="fill-rule:evenodd;stroke:#9f7747;stroke-width:1pt;stroke-opacity:1;fill:#9f7747;fill-opacity:1"
         transform="scale(0.8) rotate(180) translate(12.5,0)" />
    </marker>
  </defs>
  <sodipodi:namedview
     id="base"
     pagecolor="#ffffff"
     bordercolor="#666666"
     borderopacity="1.0"
     inkscape:pageopacity="0.0"
     inkscape:pageshadow="2"
     inkscape:zoom="1.4142136"
     inkscape:cx="223.55418"
     inkscape:cy="731.98864"
     inkscape:document-units="mm"
     inkscape:current-layer="layer1"
     showgrid="false"
     inkscape:window-width="1920"
     inkscape:window-height="1027"
     inkscape:window-x="1912"
     inkscape:window-y="-8"
     inkscape:window-maximized="1" />
  <metadata
     id="metadata5">
    <rdf:RDF>
      <cc:Work
         rdf:about="">
        <dc:format>image/svg+xml</dc:format>
        <dc:type
           rdf:resource="http://purl.org/dc/dcmitype/StillImage" />
        <dc:title></dc:title>
      </cc:Work>
    </rdf:RDF>
  </metadata>
  <g
     inkscape:label="Layer 1"
     inkscape:groupmode="layer"
     id="layer1">
    <circle
       style="fill:#fffffe;fill-opacity:1;stroke-width:0.26458332"
       id="path4504"
       cx="94.212509"
       cy="92.004272"
       r="47.039436" />
    <g
       id="g5160"
       transform="matrix(1.0028567,-0.45882511,0.45882511,1.0028567,-65.312259,-55.799447)">
      <rect
         transform="rotate(-0.01746446)"
         y="160.72791"
         x="64.63884"
         height="30.927057"
         width="29.860607"
         id="rect4574"
         style="fill:#d5a779;fill-opacity:1;stroke:none;stroke-width:4.10396338;stroke-linecap:round;stroke-linejoin:round;stroke-miterlimit:4;stroke-dasharray:none;stroke-opacity:1" />
      <path
         inkscape:connector-curvature="0"
         id="path4578"
         d="m 67.808094,183.85656 23.684562,0.0449"
         style="fill:none;stroke:#9f7747;stroke-width:0.81;stroke-linecap:butt;stroke-linejoin:miter;stroke-miterlimit:4;stroke-dasharray:none;stroke-opacity:1" />
      <path
         inkscape:connector-curvature="0"
         id="path4578-0"
         d="m 86.657209,188.36269 3.818462,0.0848"
         style="fill:none;stroke:#9f7747;stroke-width:0.49947867px;stroke-linecap:butt;stroke-linejoin:miter;stroke-opacity:1" />
      <path
         inkscape:connector-curvature="0"
         id="path4578-0-1"
         d="m 91.435461,188.41276 2.113809,0.0848"
         style="fill:none;stroke:#9f7747;stroke-width:0.37162557px;stroke-linecap:butt;stroke-linejoin:miter;stroke-opacity:1" />
      <path
         sodipodi:nodetypes="cccccc"
         inkscape:connector-curvature="0"
         id="path5137"
         d="m 88.351933,164.18861 -3.449032,3.49628 h 2.504091 v 8.88244 h 1.003999 z"
         style="fill:#9f7747;fill-opacity:1;stroke:none;stroke-width:0.26458332px;stroke-linecap:butt;stroke-linejoin:miter;stroke-opacity:1" />
      <path
         sodipodi:nodetypes="cccccc"
         inkscape:connector-curvature="0"
         id="path5137-8"
         d="m 88.327128,164.18861 3.473837,3.49628 h -2.5221 v 8.88244 h -0.892254 z"
         style="fill:#9f7747;fill-opacity:1;stroke:none;stroke-width:0.26553303px;stroke-linecap:butt;stroke-linejoin:miter;stroke-opacity:1" />
    </g>
    <path
       id="path4544-5"
       style="fill:none;fill-opacity:1;stroke:#2c5aa0;stroke-width:5.00252151;stroke-linecap:round;stroke-linejoin:round;stroke-miterlimit:4;stroke-dasharray:none;stroke-opacity:1"
       d="m 116.66662,123.60386 c 0,2.85712 -2.36905,5.17326 -5.29144,5.17326 -2.92239,0 -5.29144,-2.31614 -5.29144,-5.17326 0,-2.85711 2.36905,-5.17325 5.29144,-5.17325 2.92239,0 5.29144,2.31614 5.29144,5.17325 z m -23.569162,0.11519 c -10e-7,2.85711 -2.369058,5.17325 -5.291437,5.17325 -2.922379,0 -5.291436,-2.31614 -5.291437,-5.17325 10e-7,-2.85712 2.369058,-5.17326 5.291437,-5.17326 2.922379,0 5.291436,2.31614 5.291437,5.17326 z M 82.84387,108.17102 c 0,0 -6.227908,-0.75894 -7.00328,5.08935 1.263183,5.40517 4.697541,4.84527 4.697541,4.84527 l 30.016989,0.35453 M 121.66377,97.838264 80.006335,97.956436 M 76.815552,87.025054 124.26366,86.611436 m -7.68151,-9.631438 -6.91335,30.726052 m -8.3315,-30.844227 -0.35453,31.080587 M 86.092457,76.861848 92.592199,107.82425 m -32.852501,-40.884797 10.8633,0.04895 12.240873,41.182647 36.796759,-0.30558 7.3823,-32.031177 -53.725611,-0.14685"
       inkscape:connector-curvature="0"
       sodipodi:nodetypes="scscsssssscccccccccccccccccccc" />
  </g>
</svg>
